<svg xmlns="http://www.w3.org/2000/svg" viewBox="0 0 512 341.3"><path fill="#FFF" d="M0 0h512v341.3H0z"/><path d="M0 0h512v113.8H0z"/><path fill="#428823" d="M0 227.6h512v113.8H0z"/><g fill="#D80027"><path d="M256 170.7 0 341.3V0zM309.1 170.7c0-22.9 13.1-42.1 34.6-46.8-3.3-.7-6.7-1.1-10.3-1.1-26.4 0-47.9 21.4-47.9 47.9s21.4 47.9 47.9 47.9c3.5 0 7-.4 10.3-1.1-21.5-4.8-34.6-23.9-34.6-46.8z"/><path d="m365 129.2 10.3 31.7h33.3l-27 19.6 10.3 31.7-26.9-19.6-27 19.6 10.3-31.7-27-19.6h33.4z"/></g></svg>