<svg xmlns="http://www.w3.org/2000/svg" viewBox="0 85.333 512 341.333"><path fill="#0052B4" d="M0 85.334h512v341.337H0z"/><circle fill="#6DA544" cx="384" cy="181.79" r="29.682"/><path fill="#D80027" d="M332.054 174.377h103.88v44.522h-103.88z"/><path fill="#496E2D" d="M435.942 255.997v-.001.001z"/><path fill="#FFDA44" d="M332.058 285.678v29.682h15.616c9.364 9.176 22.18 14.84 36.326 14.84 14.147 0 26.962-5.664 36.326-14.84h15.616v-29.682H332.058z"/><path fill="#338AF3" d="M332.058 211.475v44.522c0 39.759 51.942 51.942 51.942 51.942s51.942-12.182 51.942-51.942v-44.522H332.058z"/><g fill="#F3F3F3"><path d="M383.997 235.256c-12.985 0-12.985 11.873-25.97 11.873s-12.985-11.873-25.97-11.873v20.777c12.985 0 12.985 11.873 25.97 11.873s12.985-11.873 25.97-11.873c12.986 0 12.986 11.873 25.973 11.873 12.986 0 12.986-11.873 25.973-11.873v-20.777c-12.986 0-12.986 11.873-25.973 11.873-12.986-.001-12.986-11.873-25.973-11.873zM383.997 193.666c-12.985 0-12.985 11.873-25.97 11.873s-12.985-11.873-25.97-11.873v20.777c12.985 0 12.985 11.873 25.97 11.873s12.985-11.873 25.97-11.873c12.986 0 12.986 11.873 25.973 11.873 12.986 0 12.986-11.873 25.973-11.873v-20.777c-12.986 0-12.986 11.873-25.973 11.873-12.986 0-12.986-11.873-25.973-11.873z"/></g><path fill="#FFF" d="M256 85.334v22.617l-46.069 30.709H256v64h-46.069L256 233.38v22.617h-22.628L160 207.078v48.919H96v-48.919l-73.372 48.919H0V233.38l46.069-30.72H0v-64h46.069L0 107.951V85.334h22.628L96 134.241V85.334h64v48.907l73.372-48.907z"/><g fill="#D80027"><path d="M144 85.329h-32v69.334H0v32h112v69.334h32v-69.334h112v-32H144z"/><path d="M0 85.329v15.082l57.377 38.252H80zM256 85.329v15.082l-57.377 38.252H176z"/><path d="M0 85.329v15.082l57.377 38.252H80zM256 85.329v15.082l-57.377 38.252H176zM0 255.997v-15.082l57.377-38.252H80zM256 255.997v-15.082l-57.377-38.252H176z"/></g></svg>