<svg xmlns="http://www.w3.org/2000/svg" viewBox="0 85.333 512 341.333"><path d="M0 85.337h512v341.326H0z"/><path fill="#D80027" d="M0 85.337h512v113.775H0z"/><path fill="#496E2D" d="M0 312.888h512v113.775H0z"/><g fill="#FFF"><path d="m281.424 236.026 8.962 12.35 14.513-4.706-8.975 12.339 8.961 12.349-14.509-4.724-8.976 12.34.01-15.258-14.51-4.725 14.514-4.706z"/><path d="M256.965 286.868c-17.048 0-30.868-13.821-30.868-30.868s13.821-30.868 30.868-30.868a30.742 30.742 0 0 1 14.684 3.71c-6.851-6.698-16.218-10.833-26.556-10.833-20.982 0-37.992 17.01-37.992 37.992s17.01 37.992 37.992 37.992c10.338 0 19.706-4.135 26.556-10.833a30.738 30.738 0 0 1-14.684 3.708z"/></g></svg>